<svg id="svg" xmlns="http://www.w3.org/2000/svg" xmlns:xlink="http://www.w3.org/1999/xlink" width="400" height="464.07322654462246" viewBox="0, 0, 400,464.07322654462246"><g id="svgg"><path id="path0" d="M164.760 22.890 C 145.881 33.875,101.602 59.535,66.362 79.912 L 2.288 116.962 2.099 231.707 L 1.910 346.453 33.678 364.710 C 51.151 374.751,95.277 400.226,131.737 421.321 C 168.196 442.415,198.514 459.862,199.108 460.090 C 199.703 460.318,210.033 454.804,222.063 447.837 C 234.093 440.869,278.432 415.216,320.595 390.830 L 397.254 346.491 397.223 231.598 L 397.191 116.705 381.891 107.928 C 373.476 103.101,329.440 77.662,284.033 51.397 C 238.627 25.133,200.938 3.480,200.281 3.281 C 199.623 3.081,183.638 11.906,164.760 22.890 M289.245 70.217 C 336.316 97.425,376.888 120.898,379.405 122.379 L 383.982 125.071 384.204 231.643 L 384.426 338.215 369.101 347.061 C 360.672 351.926,320.000 375.441,278.719 399.317 C 237.437 423.193,202.763 443.205,201.665 443.788 C 199.888 444.731,196.550 443.044,171.459 428.520 C 149.085 415.570,80.897 376.162,22.654 342.523 L 15.561 338.426 15.564 231.684 L 15.567 124.943 43.710 108.714 C 59.189 99.788,100.686 75.815,135.927 55.442 C 193.546 22.130,200.184 18.517,201.831 19.573 C 202.838 20.219,242.174 43.009,289.245 70.217 M192.349 83.441 C 185.654 86.755,180.438 95.250,177.176 108.154 C 174.644 118.171,174.914 117.939,169.840 114.448 C 137.842 92.433,115.645 111.644,135.438 144.223 C 137.545 147.691,139.341 150.875,139.428 151.299 C 139.516 151.722,135.848 153.028,131.278 154.201 C 94.919 163.527,95.103 190.085,131.585 198.730 C 141.320 201.037,140.773 200.440,137.511 205.199 C 114.014 239.473,136.400 261.592,170.700 237.993 C 173.580 236.011,174.942 235.504,175.159 236.334 C 175.331 236.991,176.163 240.412,177.009 243.936 C 180.916 260.216,188.229 269.742,197.712 270.900 L 201.831 271.403 201.627 276.250 C 201.321 283.543,198.394 292.165,191.778 305.267 C 188.497 311.763,185.812 317.613,185.812 318.265 C 185.812 320.687,183.927 319.286,179.027 313.220 C 164.155 294.815,142.374 284.392,114.362 282.277 L 105.909 281.639 106.375 285.775 C 108.498 304.615,131.434 319.603,168.524 326.388 C 175.767 327.713,181.770 328.864,181.863 328.947 C 181.957 329.029,181.572 333.254,181.008 338.336 C 179.006 356.370,186.961 377.831,199.583 388.452 C 203.095 391.407,203.633 391.416,206.484 388.564 C 209.202 385.847,208.795 384.696,202.611 377.600 C 189.429 362.475,186.917 343.363,195.168 320.978 L 198.148 312.894 201.362 313.352 C 236.407 318.340,251.672 317.043,269.967 307.525 C 283.195 300.643,295.964 286.104,299.326 274.097 C 300.862 268.610,300.659 268.482,288.429 267.204 C 257.433 263.966,232.753 270.906,214.129 288.097 C 210.445 291.497,207.742 293.455,208.123 292.449 C 209.418 289.026,211.437 278.178,212.008 271.572 C 212.443 266.554,213.204 263.992,215.209 260.796 C 218.269 255.920,220.978 248.460,222.503 240.710 C 223.095 237.702,223.690 235.240,223.826 235.240 C 223.961 235.240,226.160 236.645,228.711 238.362 C 263.130 261.524,284.482 239.129,260.923 204.577 C 258.314 200.750,258.254 200.816,265.938 199.107 C 303.229 190.810,303.635 161.665,266.565 153.999 C 258.431 152.317,258.176 152.073,260.761 148.425 C 283.874 115.806,265.120 92.756,231.729 112.743 C 227.533 115.255,223.967 117.174,223.804 117.008 C 223.642 116.841,222.642 113.045,221.583 108.572 C 216.592 87.512,204.728 77.313,192.349 83.441 " stroke="none" fill="#000000" fill-rule="evenodd"></path></g></svg>