<svg id="svg" xmlns="http://www.w3.org/2000/svg" xmlns:xlink="http://www.w3.org/1999/xlink" width="400" height="463.1578947368421" viewBox="0, 0, 400,463.1578947368421"><g id="svgg"><path id="path0" d="M128.146 44.491 C 88.627 67.420,44.348 93.105,29.748 101.569 L 3.204 116.959 2.980 231.706 L 2.756 346.453 7.099 348.794 C 10.685 350.728,166.421 440.940,192.144 455.985 C 196.381 458.463,200.370 460.290,201.007 460.046 C 202.012 459.660,319.638 391.626,377.346 358.053 L 397.254 346.470 397.225 231.588 L 397.196 116.705 375.486 104.204 C 363.545 97.329,337.300 82.145,317.162 70.463 C 297.025 58.780,268.398 42.200,253.547 33.618 C 238.696 25.037,220.668 14.580,213.485 10.381 C 206.302 6.182,200.330 2.759,200.213 2.774 C 200.096 2.789,167.666 21.562,128.146 44.491 M226.545 33.679 C 239.130 40.975,271.465 59.726,298.398 75.349 C 325.332 90.973,355.606 108.529,365.675 114.364 L 383.982 124.973 384.201 231.594 L 384.420 338.215 348.961 358.747 C 329.458 370.039,298.261 388.128,279.634 398.944 C 261.007 409.760,235.539 424.529,223.038 431.764 L 200.310 444.919 190.086 439.028 C 184.463 435.788,153.089 417.605,120.366 398.621 C 87.643 379.637,50.881 358.342,38.673 351.297 L 16.476 338.489 16.479 231.716 L 16.481 124.943 90.762 81.922 C 131.617 58.261,172.908 34.328,182.522 28.737 C 197.049 20.289,200.309 18.729,201.831 19.494 C 202.838 20.000,213.959 26.383,226.545 33.679 M246.167 66.335 C 228.389 75.598,210.849 110.946,203.688 151.945 C 200.408 170.722,197.760 178.427,193.154 182.592 C 192.051 183.590,189.664 186.473,187.851 189.000 C 186.037 191.526,184.435 193.753,184.291 193.950 C 184.148 194.146,182.326 192.768,180.243 190.886 C 170.378 181.974,155.449 182.369,146.026 191.793 C 134.084 203.734,137.191 224.560,152.036 232.083 L 156.465 234.327 154.205 237.657 C 152.962 239.489,151.945 241.474,151.945 242.068 C 151.945 245.885,138.795 256.183,121.682 265.768 C 96.221 280.029,69.267 307.748,63.103 326.010 C 55.459 348.655,80.282 360.313,98.829 342.788 C 107.280 334.803,111.804 333.879,118.902 338.689 C 126.912 344.117,133.189 340.116,149.569 319.140 C 163.698 301.045,168.572 289.335,170.643 268.504 C 171.823 256.631,173.357 251.716,175.882 251.716 C 179.711 251.716,187.846 258.484,200.301 272.033 C 232.743 307.324,255.837 315.350,285.317 301.580 C 295.382 296.879,295.048 297.627,295.133 279.634 L 295.195 266.819 291.739 259.583 C 284.141 243.669,266.539 229.807,239.945 218.794 C 219.320 210.253,219.545 210.368,214.513 205.730 C 208.438 200.130,210.010 197.629,223.493 191.439 C 242.609 182.663,252.056 173.879,264.964 152.876 C 278.432 130.963,279.511 125.037,271.403 117.527 C 265.044 111.637,264.587 107.325,269.205 96.803 C 277.498 77.909,262.364 57.895,246.167 66.335 " stroke="none" fill="#000000" fill-rule="evenodd"></path></g></svg>